<svg width="683" height="683" viewBox="0 0 683 683" fill="none" xmlns="http://www.w3.org/2000/svg">
<g clip-path="url(#clip0_395_22)">
<path d="M489.998 1.32864C428.132 5.86197 373.465 24.262 363.332 43.9953C360.665 49.062 362.132 52.662 369.732 59.5953C386.132 74.7953 427.332 88.1286 473.998 93.5953C492.932 95.7286 551.065 95.7286 569.998 93.5953C612.265 88.662 647.465 78.262 667.865 64.662C676.932 58.7953 682.665 51.9953 682.665 47.462C682.665 46.262 679.865 42.262 676.532 38.662C661.865 22.9286 621.198 8.79531 575.332 3.32864C554.132 0.928641 509.865 -0.138026 489.998 1.32864Z" fill="#007FFF"/>
<path d="M361.336 125.732C361.336 146.532 361.469 147.598 364.536 152.132C370.669 161.065 391.203 172.398 413.736 179.332C478.269 198.932 577.869 197.998 637.203 177.065C658.536 169.598 675.069 159.732 680.003 151.598C682.403 147.865 682.669 144.798 682.669 125.732V104.132L669.736 109.865C662.536 113.065 651.869 117.198 646.003 119.065C564.403 145.865 435.469 140.665 370.936 108.132C366.403 105.865 362.403 103.998 362.003 103.998C361.603 103.998 361.336 113.732 361.336 125.732Z" fill="#007FFF"/>
<path d="M110.002 198.663C99.0682 199.997 84.9349 201.997 78.6682 203.33C33.2016 212.663 -2.93177 232.397 0.534901 245.997C2.66823 254.53 26.4016 269.063 50.5349 276.53C118.002 297.73 223.602 295.597 283.335 271.997C301.735 264.797 315.468 255.463 319.468 247.597C321.468 243.73 321.468 243.197 319.335 239.063C312.668 226.663 283.602 212.663 247.735 204.53C210.535 196.13 152.268 193.597 110.002 198.663Z" fill="#007FFF"/>
<path d="M361.336 222.665C361.336 247.065 361.869 249.065 370.936 256.398C415.869 292.531 548.403 302.798 632.136 276.531C650.269 270.931 667.203 262.131 675.469 254.131L682.669 247.198V224.265V201.331L674.403 205.465C649.869 217.865 613.336 227.198 570.003 232.265C551.069 234.398 492.936 234.398 474.003 232.265C430.803 227.198 393.203 217.465 368.269 204.798L361.336 201.331V222.665Z" fill="#007FFF"/>
<path d="M0 321.596C0 345.996 0.266667 346.929 10 354.662C28.1333 369.062 64.5333 380.796 108.8 386.262C134.267 389.329 187.067 389.329 212.667 386.262C259.333 380.529 296.4 367.862 313.867 351.862L320.667 345.596L321.067 322.796C321.333 310.262 321.2 299.996 320.8 299.996C320.4 299.996 314.667 302.396 308.267 305.329C282.8 316.796 254.533 323.996 213.333 329.596C193.6 332.262 123.733 331.729 102.667 328.929C65.8667 323.729 34.4 315.462 11.3333 304.796C5.6 302.129 0.8 299.996 0.533333 299.996C0.266667 299.996 0 309.729 0 321.596Z" fill="#007FFF"/>
<path d="M361.6 322.796L362 345.596L368.8 351.862C386.266 367.862 423.333 380.529 470 386.262C495.6 389.329 548.4 389.329 573.866 386.262C618.133 380.796 654.533 369.062 672.666 354.662C682.4 346.929 682.666 345.996 682.666 321.596C682.666 309.729 682.4 299.996 682.133 299.996C681.866 299.996 677.066 302.129 671.333 304.796C648.266 315.462 616.8 323.729 580 328.929C558.933 331.729 489.066 332.262 469.333 329.596C428.133 323.996 399.866 316.796 374.4 305.329C368 302.396 362.266 299.996 361.866 299.996C361.466 299.996 361.333 310.262 361.6 322.796Z" fill="#007FFF"/>
<path d="M0 418.662C0 443.729 0.533333 445.329 11.0667 453.329C45.8667 479.462 132.533 492.929 210.133 483.995C254.933 478.929 292.267 467.329 310.4 453.062C320.933 444.662 321.333 443.462 321.333 418.929C321.333 407.062 321.067 397.329 320.8 397.329C320.533 397.329 315.2 399.729 308.933 402.662C256.267 427.329 167.733 436.129 89.3333 424.529C60.8 420.395 28.8 411.195 10.4 401.862C5.46667 399.329 1.06667 397.329 0.666667 397.329C0.266667 397.329 0 406.929 0 418.662Z" fill="#007FFF"/>
<path d="M361.336 418.929C361.336 443.462 361.736 444.662 372.269 453.062C390.403 467.329 427.736 478.929 472.536 483.995C550.136 492.929 636.803 479.462 671.603 453.329C682.136 445.329 682.669 443.729 682.669 418.662C682.669 406.929 682.403 397.329 682.003 397.329C681.603 397.329 677.203 399.329 672.269 401.862C647.603 414.262 609.203 423.729 565.336 427.995C544.269 430.129 495.736 429.729 472.669 427.329C435.069 423.462 398.536 414.262 373.736 402.662C367.469 399.729 362.136 397.329 361.869 397.329C361.603 397.329 361.336 407.062 361.336 418.929Z" fill="#007FFF"/>
<path d="M0 517.334V540.001L4.93333 545.334C27.8667 570.801 105.467 587.734 182 584.001C239.2 581.201 284.533 569.467 309.733 551.201C320.667 543.201 321.333 541.334 321.333 516.267V494.667L314.8 498.001C281.867 514.667 232.133 525.201 175.333 527.467C115.867 529.867 46 517.867 8.13333 498.667L0 494.667V517.334Z" fill="#007FFF"/>
<path d="M361.336 516.261C361.336 535.461 361.603 538.528 364.003 542.261C371.603 554.661 402.669 569.061 438.269 576.528C493.069 587.995 566.003 586.928 616.669 573.995C646.403 566.395 667.869 556.395 677.736 545.328L682.669 539.995V517.328V494.661L674.536 498.661C636.669 517.861 566.803 529.861 507.336 527.461C450.536 525.195 400.803 514.661 367.869 497.995L361.336 494.661V516.261Z" fill="#007FFF"/>
<path d="M0 615.198C0 635.731 0.133333 637.198 3.06667 640.798C7.73333 646.931 12 650.265 21.3333 655.198C42.8 666.531 69.0667 674.131 104 678.931C131.6 682.665 185.067 682.931 212 679.465C259.733 673.465 296.667 661.065 313.467 645.465L320.667 638.931L321.067 616.131C321.333 600.265 321.067 593.331 320 593.331C319.2 593.331 315.6 594.798 312 596.665C288.667 608.531 254 617.598 212 622.931C193.6 625.198 128.133 625.198 109.333 622.931C70.1333 618.131 36 609.465 11.2 598.131C5.6 595.465 0.8 593.331 0.533333 593.331C0.266667 593.331 0 603.198 0 615.198Z" fill="#007FFF"/>
<path d="M361.596 616.134L361.996 638.934L369.196 645.468C381.463 656.801 409.73 668.534 439.463 674.534C466.53 680.001 485.73 681.734 521.996 681.734C581.863 681.734 621.863 674.534 656.663 657.334C670.263 650.668 674.263 647.734 679.596 640.801C682.53 637.201 682.663 635.734 682.663 615.201C682.663 603.201 682.396 593.334 682.13 593.334C681.863 593.334 677.063 595.468 671.463 598.134C646.663 609.468 612.53 618.134 573.33 622.934C554.53 625.201 489.063 625.201 470.663 622.934C428.663 617.601 393.996 608.534 370.663 596.668C367.063 594.801 363.463 593.334 362.663 593.334C361.596 593.334 361.33 600.268 361.596 616.134Z" fill="#007FFF"/>
</g>
<defs>
<clipPath id="clip0_395_22">
<rect width="682.667" height="682.667" fill="white"/>
</clipPath>
</defs>
</svg>
